<?xml version="1.0" encoding="UTF-8" standalone="no"?>
<svg
   viewBox="0 0 24 24"
   width="24"
   height="24"
   version="1.1"
   id="svg1"
   sodipodi:docname="agentic-workflow-24.svg"
   inkscape:version="1.4.2 (ebf0e940, 2025-05-08)"
   xmlns:inkscape="http://www.inkscape.org/namespaces/inkscape"
   xmlns:sodipodi="http://sodipodi.sourceforge.net/DTD/sodipodi-0.dtd"
   xmlns="http://www.w3.org/2000/svg"
   xmlns:svg="http://www.w3.org/2000/svg">
  <defs
     id="defs1">
    <linearGradient
       id="swatch1">
      <stop
         style="stop-color:#000000;stop-opacity:1;"
         offset="0"
         id="stop1" />
    </linearGradient>
  </defs>
  <sodipodi:namedview
     id="namedview1"
     pagecolor="#505050"
     bordercolor="#eeeeee"
     borderopacity="1"
     inkscape:showpageshadow="0"
     inkscape:pageopacity="0"
     inkscape:pagecheckerboard="0"
     inkscape:deskcolor="#505050"
     inkscape:zoom="8"
     inkscape:cx="4.5"
     inkscape:cy="20.9375"
     inkscape:window-width="1440"
     inkscape:window-height="920"
     inkscape:window-x="75"
     inkscape:window-y="34"
     inkscape:window-maximized="1"
     inkscape:current-layer="svg1" />
  <path
     d="M1 3a2 2 0 0 1 2-2h6.5a2 2 0 0 1 2 2v6.5a2 2 0 0 1-2 2H7v4.063C7 16.355 7.644 17 8.438 17H12.5v-2.5a2 2 0 0 1 2-2H21a2 2 0 0 1 2 2V21a2 2 0 0 1-2 2h-6.5a2 2 0 0 1-2-2v-2.5H8.437A2.939 2.939 0 0 1 5.5 15.562V11.5H3a2 2 0 0 1-2-2Zm2-.5a.5.5 0 0 0-.5.5v6.5a.5.5 0 0 0 .5.5h6.5a.5.5 0 0 0 .5-.5V3a.5.5 0 0 0-.5-.5ZM14.5 14a.5.5 0 0 0-.5.5V21a.5.5 0 0 0 .5.5H21a.5.5 0 0 0 .5-.5v-6.5a.5.5 0 0 0-.5-.5Z"
     id="path1"
     style="fill:#ffffff;fill-opacity:1" />
  <path
     d="m 17.143457,3.150068 c 0.08316,-0.2223805 0.405823,-0.2220853 0.489285,0 l 0.580004,1.5448654 a 1.7629956,1.7194665 0 0 0 1.049329,1.023421 l 1.583672,0.5656841 c 0.228313,0.081107 0.228313,0.3958026 0,0.4772038 l -1.583672,0.565684 a 1.7629956,1.7194665 0 0 0 -1.049329,1.023421 l -0.580004,1.5445702 c -0.08346,0.2226755 -0.406125,0.2226755 -0.489285,0 L 16.563452,8.3503473 a 1.7629956,1.7194665 0 0 0 -1.049329,-1.023421 l -1.583975,-0.565684 c -0.227707,-0.081395 -0.228009,-0.3958016 0,-0.4772038 l 1.583975,-0.5656841 a 1.7629956,1.7194665 0 0 0 1.049329,-1.023421 z m -0.152712,1.6976416 a 2.2184108,2.1636373 0 0 1 -1.319978,1.2873875 l -1.085921,0.3875433 1.085921,0.3878384 a 2.2175036,2.1627526 0 0 1 1.319978,1.2873876 l 0.397354,1.0585194 0.397657,-1.0585194 A 2.2165964,2.1618677 0 0 1 19.105735,6.9104788 L 20.191051,6.5226404 19.105735,6.1350971 A 2.2175036,2.1627526 0 0 1 17.785756,4.8477096 L 17.388099,3.7886004 Z"
     id="path1-9"
     style="fill:#c06eff;fill-opacity:1;stroke:#c06eff;stroke-width:0.716786;stroke-dasharray:none;stroke-opacity:1" />
</svg>
